<svg width="375" height="759" viewBox="0 0 375 759" fill="none" xmlns="http://www.w3.org/2000/svg">
<g opacity="0.202044">
<circle cx="318.5" cy="58.5" r="1.5" fill="white"/>
<circle cx="297.5" cy="85.5" r="1.5" fill="white"/>
<circle cx="266" cy="98" r="1" fill="white"/>
<circle cx="259" cy="107" r="1" fill="white"/>
<circle cx="316.5" cy="178.5" r="2.5" fill="white"/>
<circle cx="243.5" cy="153.5" r="1.5" fill="white"/>
<circle cx="212.5" cy="126.5" r="1.5" fill="white"/>
<circle cx="217.5" cy="77.5" r="0.5" fill="white"/>
<circle cx="187" cy="94" r="1" fill="white"/>
<circle cx="213.5" cy="220.5" r="1.5" fill="white"/>
<circle cx="78.5" cy="0.5" r="1.5" fill="white"/>
<circle cx="104" cy="115" r="1" fill="white"/>
<circle cx="81.5" cy="148.5" r="1.5" fill="white"/>
<circle cx="19" cy="214" r="1" fill="white"/>
<circle cx="96" cy="221" r="1" fill="white"/>
<circle cx="106.5" cy="232.5" r="1.5" fill="white"/>
<circle cx="2.5" cy="279.5" r="1.5" fill="white"/>
<circle cx="18.5" cy="301.5" r="1.5" fill="white"/>
<circle cx="33.5" cy="663.5" r="1.5" fill="white"/>
<circle cx="48.5" cy="668.5" r="1.5" fill="white"/>
<circle cx="42.5" cy="657.5" r="0.5" fill="white"/>
<circle cx="6.5" cy="705.5" r="0.5" fill="white"/>
<circle cx="55" cy="685" r="1" fill="white"/>
<circle cx="114.5" cy="722.5" r="2.5" fill="white"/>
<circle cx="149.5" cy="755.5" r="1.5" fill="white"/>
<circle cx="222.5" cy="585.5" r="1.5" fill="white"/>
<circle cx="258.5" cy="670.5" r="1.5" fill="white"/>
<circle cx="317.5" cy="667.5" r="1.5" fill="white"/>
<circle cx="316.5" cy="662.5" r="1.5" fill="white"/>
<circle cx="343.5" cy="667.5" r="1.5" fill="white"/>
<circle cx="302.5" cy="694.5" r="1.5" fill="white"/>
<circle cx="279.5" cy="612.5" r="1.5" fill="white"/>
<circle cx="304.5" cy="517.5" r="1.5" fill="white"/>
<circle cx="138" cy="467" r="1" fill="white"/>
<circle cx="229.5" cy="575.5" r="1.5" fill="white"/>
<circle cx="231.5" cy="621.5" r="1.5" fill="white"/>
<circle cx="231.5" cy="692.5" r="1.5" fill="white"/>
<circle cx="280.5" cy="300.5" r="2.5" fill="white"/>
<circle cx="349.5" cy="256.5" r="2.5" fill="white"/>
<circle cx="336" cy="269" r="1" fill="white"/>
<circle cx="62.5" cy="540.5" r="1.5" fill="white"/>
<circle cx="77" cy="527" r="1" fill="white"/>
<circle cx="254.5" cy="260.5" r="1.5" fill="white"/>
<circle cx="133" cy="287" r="1" fill="white"/>
<circle cx="140" cy="255" r="1" fill="white"/>
<circle cx="69.5" cy="411.5" r="1.5" fill="white"/>
<circle cx="79.5" cy="363.5" r="1.5" fill="white"/>
<circle cx="31" cy="349" r="1" fill="white"/>
<circle cx="275.5" cy="469.5" r="2.5" fill="white"/>
<circle cx="292.5" cy="433.5" r="2.5" fill="white"/>
<circle cx="219.5" cy="450.5" r="1.5" fill="white"/>
<circle cx="343.5" cy="350.5" r="1.5" fill="white"/>
</g>
</svg>
