<svg width="111" height="111" viewBox="0 0 111 111" fill="none" xmlns="http://www.w3.org/2000/svg">
<circle cx="55.5" cy="55.5" r="55.5" fill="#DEF4FC"/>
<mask id="mask0" style="mask-type:alpha" maskUnits="userSpaceOnUse" x="0" y="0" width="111" height="111">
<circle cx="55.5" cy="55.5" r="55.5" fill="white"/>
</mask>
<g mask="url(#mask0)">
<path fill-rule="evenodd" clip-rule="evenodd" d="M98.3689 9.56896C98.3689 7.03226 96.3125 4.97586 93.7758 4.97586H71.5758C69.0391 4.97586 66.9827 7.03226 66.9827 9.56896C66.9827 12.1057 69.0391 14.1621 71.5758 14.1621H93.7758C96.3125 14.1621 98.3689 12.1057 98.3689 9.56896ZM27.9413 50.9069C30.478 50.9069 32.5344 52.9633 32.5344 55.5C32.5344 58.0367 30.478 60.0931 27.9413 60.0931H26.7931C24.2564 60.0931 22.1999 62.1495 22.1999 64.6862C22.1999 67.2229 24.2564 69.2793 26.7931 69.2793H74.2551C76.7918 69.2793 78.8482 67.2229 78.8482 64.6862C78.8482 62.1495 76.7918 60.0931 74.2551 60.0931H54.3517L54.3513 60.0892C51.9036 59.9886 49.9501 57.9724 49.9501 55.5C49.9501 53.0276 51.9036 51.0114 54.3513 50.9108L54.3517 50.9069H55.1172C57.6539 50.9069 59.7103 48.8505 59.7103 46.3138C59.7103 43.7771 57.6539 41.7207 55.1172 41.7207H37.8931L37.8932 41.7168C35.4452 41.6165 33.4913 39.6002 33.4913 37.1276C33.4913 34.6549 35.4452 32.6386 37.8932 32.5384L37.8931 32.5345H45.5482C48.0849 32.5345 50.1413 30.4781 50.1413 27.9414C50.1413 25.4047 48.0849 23.3483 45.5482 23.3483H17.6068C15.0701 23.3483 13.0137 25.4047 13.0137 27.9414C13.0137 30.4781 15.0701 32.5345 17.6068 32.5345H19.5206C22.0573 32.5345 24.1137 34.5909 24.1137 37.1276C24.1137 39.6643 22.0573 41.7207 19.5206 41.7207H0.765467C-1.77123 41.7207 -3.82764 43.7771 -3.82764 46.3138C-3.82764 48.8505 -1.77123 50.9069 0.765467 50.9069H27.9413ZM49.7586 78.4655C52.2953 78.4655 54.3517 80.5219 54.3517 83.0586C54.3517 85.5953 52.2953 87.6517 49.7586 87.6517C47.2219 87.6517 45.1655 85.5953 45.1655 83.0586C45.1655 80.5219 47.2219 78.4655 49.7586 78.4655ZM96.4551 83.0586C96.4551 80.5219 94.3987 78.4655 91.862 78.4655H68.131C65.5943 78.4655 63.5379 80.5219 63.5379 83.0586C63.5379 85.5953 65.5943 87.6517 68.131 87.6517H91.862C94.3987 87.6517 96.4551 85.5953 96.4551 83.0586ZM63.5379 101.431C63.5379 98.8943 61.4815 96.8379 58.9448 96.8379H51.2896C48.7529 96.8379 46.6965 98.8943 46.6965 101.431C46.6965 103.968 48.7529 106.024 51.2896 106.024H58.9448C61.4815 106.024 63.5379 103.968 63.5379 101.431ZM93.7758 60.0931C96.3125 60.0931 98.3689 62.1495 98.3689 64.6862C98.3689 67.2229 96.3125 69.2793 93.7758 69.2793C91.2391 69.2793 89.1827 67.2229 89.1827 64.6862C89.1827 62.1495 91.2391 60.0931 93.7758 60.0931ZM13.0137 64.6862C13.0137 62.1495 10.9573 60.0931 8.42064 60.0931H0.765467C-1.77123 60.0931 -3.82764 62.1495 -3.82764 64.6862C-3.82764 67.2229 -1.77123 69.2793 0.765467 69.2793H8.42064C10.9573 69.2793 13.0137 67.2229 13.0137 64.6862ZM84.5896 23.3483C87.1263 23.3483 89.1827 25.4047 89.1827 27.9414C89.1827 30.4781 87.1263 32.5345 84.5896 32.5345H76.9344C74.3977 32.5345 72.3413 30.4781 72.3413 27.9414C72.3413 25.4047 74.3977 23.3483 76.9344 23.3483H84.5896Z" fill="#B1D5E2"/>
</g>
<mask id="mask1" style="mask-type:alpha" maskUnits="userSpaceOnUse" x="0" y="0" width="111" height="111">
<circle cx="55.5" cy="55.5" r="55.5" fill="white"/>
</mask>
<g mask="url(#mask1)">
<rect opacity="0.0775757" x="55.8828" width="55.5" height="111" fill="black"/>
</g>
</svg>
