<svg width="173" height="173" viewBox="0 0 173 173" fill="none" xmlns="http://www.w3.org/2000/svg">
<circle cx="86.5" cy="86.5" r="86.5" fill="#497EFA"/>
<mask id="mask0" style="mask-type:alpha" maskUnits="userSpaceOnUse" x="0" y="0" width="173" height="173">
<circle cx="86.5" cy="86.5" r="86.5" fill="white"/>
</mask>
<g mask="url(#mask0)">
<path fill-rule="evenodd" clip-rule="evenodd" d="M5.83484 63.8178C8.38271 63.8178 10.4482 65.8832 10.4482 68.4311C10.4482 70.979 8.38271 73.0444 5.83484 73.0444H-54.1385C-56.6864 73.0444 -58.7518 70.979 -58.7518 68.4311C-58.7518 65.8832 -56.6864 63.8178 -54.1385 63.8178H5.83484ZM90.4126 63.8178C92.9605 63.8178 95.0259 65.8832 95.0259 68.4311C95.0259 70.979 92.9605 73.0444 90.4126 73.0444H60.4259L60.4261 73.0484C57.9673 73.1491 56.0048 75.1742 56.0048 77.6578C56.0048 80.1413 57.9673 82.1665 60.4261 82.2672L60.4259 82.2711H121.937C124.485 82.2711 126.55 84.3366 126.55 86.8844C126.55 89.4323 124.485 91.4978 121.937 91.4978H23.1348C20.587 91.4978 18.5215 89.4323 18.5215 86.8844C18.5215 84.3366 20.587 82.2711 23.1348 82.2711H41.9726C44.5205 82.2711 46.5859 80.2057 46.5859 77.6578C46.5859 75.1099 44.5205 73.0444 41.9726 73.0444H30.4393C27.8914 73.0444 25.8259 70.979 25.8259 68.4311C25.8259 65.8832 27.8914 63.8178 30.4393 63.8178H90.4126ZM11.6015 100.724C14.1494 100.724 16.2148 102.79 16.2148 105.338C16.2148 107.886 14.1494 109.951 11.6015 109.951H-16.4629C-19.0108 109.951 -21.0763 107.886 -21.0763 105.338C-21.0763 102.79 -19.0108 100.724 -16.4629 100.724H11.6015ZM121.937 100.724C124.485 100.724 126.55 102.79 126.55 105.338C126.55 107.886 124.485 109.951 121.937 109.951H93.8726C91.3247 109.951 89.2593 107.886 89.2593 105.338C89.2593 102.79 91.3247 100.724 93.8726 100.724H121.937ZM223.43 105.338C223.43 102.79 221.365 100.724 218.817 100.724H154.999C152.451 100.724 150.386 102.79 150.386 105.338C150.386 107.886 152.451 109.951 154.999 109.951H218.817C221.365 109.951 223.43 107.886 223.43 105.338ZM150.386 73.0444C152.934 73.0444 154.999 75.1099 154.999 77.6578C154.999 80.2057 152.934 82.2711 150.386 82.2711H146.926C144.378 82.2711 142.313 84.3366 142.313 86.8844C142.313 89.4323 144.378 91.4978 146.926 91.4978H245.728C248.276 91.4978 250.341 89.4323 250.341 86.8844C250.341 84.3366 248.276 82.2711 245.728 82.2711H168.839L168.839 82.2672C166.381 82.1665 164.418 80.1413 164.418 77.6578C164.418 75.1742 166.381 73.1491 168.839 73.0484L168.839 73.0444H178.066C180.614 73.0444 182.679 70.979 182.679 68.4311C182.679 65.8832 180.614 63.8178 178.066 63.8178H118.093C115.545 63.8178 113.479 65.8832 113.479 68.4311C113.479 70.979 115.545 73.0444 118.093 73.0444H150.386ZM264.95 68.4311C264.95 65.8832 262.885 63.8178 260.337 63.8178H200.364C197.816 63.8178 195.75 65.8832 195.75 68.4311C195.75 70.979 197.816 73.0444 200.364 73.0444H260.337C262.885 73.0444 264.95 70.979 264.95 68.4311Z" fill="#356CEE"/>
</g>
<mask id="mask1" style="mask-type:alpha" maskUnits="userSpaceOnUse" x="0" y="0" width="173" height="173">
<circle cx="86.5" cy="86.5" r="86.5" fill="white"/>
</mask>
<g mask="url(#mask1)">
<path opacity="0.4" fill-rule="evenodd" clip-rule="evenodd" d="M5.83484 8.45776C8.38271 8.45776 10.4482 10.5232 10.4482 13.0711C10.4482 15.619 8.38271 17.6844 5.83484 17.6844H-54.1385C-56.6864 17.6844 -58.7518 15.619 -58.7518 13.0711C-58.7518 10.5232 -56.6864 8.45776 -54.1385 8.45776H5.83484ZM90.4126 8.45776C92.9605 8.45776 95.0259 10.5232 95.0259 13.0711C95.0259 15.619 92.9605 17.6844 90.4126 17.6844H60.4259L60.4261 17.6884C57.9673 17.7891 56.0048 19.8142 56.0048 22.2978C56.0048 24.7813 57.9673 26.8065 60.4261 26.9072L60.4259 26.9111H121.937C124.485 26.9111 126.55 28.9766 126.55 31.5244C126.55 34.0723 124.485 36.1378 121.937 36.1378H23.1348C20.587 36.1378 18.5215 34.0723 18.5215 31.5244C18.5215 28.9766 20.587 26.9111 23.1348 26.9111H41.9726C44.5205 26.9111 46.5859 24.8456 46.5859 22.2978C46.5859 19.7499 44.5205 17.6844 41.9726 17.6844H30.4393C27.8914 17.6844 25.8259 15.619 25.8259 13.0711C25.8259 10.5232 27.8914 8.45776 30.4393 8.45776H90.4126ZM11.6015 45.3644C14.1494 45.3644 16.2148 47.4299 16.2148 49.9778C16.2148 52.5256 14.1494 54.5911 11.6015 54.5911H-16.4629C-19.0108 54.5911 -21.0763 52.5256 -21.0763 49.9778C-21.0763 47.4299 -19.0108 45.3644 -16.4629 45.3644H11.6015ZM121.937 45.3644C124.485 45.3644 126.55 47.4299 126.55 49.9778C126.55 52.5256 124.485 54.5911 121.937 54.5911H93.8726C91.3247 54.5911 89.2593 52.5256 89.2593 49.9778C89.2593 47.4299 91.3247 45.3644 93.8726 45.3644H121.937ZM223.43 49.9778C223.43 47.4299 221.365 45.3644 218.817 45.3644H154.999C152.451 45.3644 150.386 47.4299 150.386 49.9778C150.386 52.5256 152.451 54.5911 154.999 54.5911H218.817C221.365 54.5911 223.43 52.5256 223.43 49.9778ZM150.386 17.6844C152.934 17.6844 154.999 19.7499 154.999 22.2978C154.999 24.8456 152.934 26.9111 150.386 26.9111H146.926C144.378 26.9111 142.313 28.9766 142.313 31.5244C142.313 34.0723 144.378 36.1378 146.926 36.1378H245.728C248.276 36.1378 250.341 34.0723 250.341 31.5244C250.341 28.9766 248.276 26.9111 245.728 26.9111H168.839L168.839 26.9072C166.381 26.8065 164.418 24.7813 164.418 22.2978C164.418 19.8142 166.381 17.7891 168.839 17.6884L168.839 17.6844H178.066C180.614 17.6844 182.679 15.619 182.679 13.0711C182.679 10.5232 180.614 8.45776 178.066 8.45776H118.093C115.545 8.45776 113.479 10.5232 113.479 13.0711C113.479 15.619 115.545 17.6844 118.093 17.6844H150.386ZM264.95 13.0711C264.95 10.5232 262.885 8.45776 260.337 8.45776H200.364C197.816 8.45776 195.75 10.5232 195.75 13.0711C195.75 15.619 197.816 17.6844 200.364 17.6844H260.337C262.885 17.6844 264.95 15.619 264.95 13.0711Z" fill="#356CEE"/>
</g>
<mask id="mask2" style="mask-type:alpha" maskUnits="userSpaceOnUse" x="0" y="0" width="173" height="173">
<circle cx="86.5" cy="86.5" r="86.5" fill="white"/>
</mask>
<g mask="url(#mask2)">
<path opacity="0.4" fill-rule="evenodd" clip-rule="evenodd" d="M5.83484 128.404C8.38271 128.404 10.4482 130.47 10.4482 133.018C10.4482 135.566 8.38271 137.631 5.83484 137.631H-54.1385C-56.6864 137.631 -58.7518 135.566 -58.7518 133.018C-58.7518 130.47 -56.6864 128.404 -54.1385 128.404H5.83484ZM90.4126 128.404C92.9605 128.404 95.0259 130.47 95.0259 133.018C95.0259 135.566 92.9605 137.631 90.4126 137.631H60.4259L60.4261 137.635C57.9673 137.736 56.0048 139.761 56.0048 142.244C56.0048 144.728 57.9673 146.753 60.4261 146.854L60.4259 146.858H121.937C124.485 146.858 126.55 148.923 126.55 151.471C126.55 154.019 124.485 156.084 121.937 156.084H23.1348C20.587 156.084 18.5215 154.019 18.5215 151.471C18.5215 148.923 20.587 146.858 23.1348 146.858H41.9726C44.5205 146.858 46.5859 144.792 46.5859 142.244C46.5859 139.697 44.5205 137.631 41.9726 137.631H30.4393C27.8914 137.631 25.8259 135.566 25.8259 133.018C25.8259 130.47 27.8914 128.404 30.4393 128.404H90.4126ZM11.6015 165.311C14.1494 165.311 16.2148 167.377 16.2148 169.924C16.2148 172.472 14.1494 174.538 11.6015 174.538H-16.4629C-19.0108 174.538 -21.0763 172.472 -21.0763 169.924C-21.0763 167.377 -19.0108 165.311 -16.4629 165.311H11.6015ZM121.937 165.311C124.485 165.311 126.55 167.377 126.55 169.924C126.55 172.472 124.485 174.538 121.937 174.538H93.8726C91.3247 174.538 89.2593 172.472 89.2593 169.924C89.2593 167.377 91.3247 165.311 93.8726 165.311H121.937ZM223.43 169.924C223.43 167.377 221.365 165.311 218.817 165.311H154.999C152.451 165.311 150.386 167.377 150.386 169.924C150.386 172.472 152.451 174.538 154.999 174.538H218.817C221.365 174.538 223.43 172.472 223.43 169.924ZM150.386 137.631C152.934 137.631 154.999 139.697 154.999 142.244C154.999 144.792 152.934 146.858 150.386 146.858H146.926C144.378 146.858 142.313 148.923 142.313 151.471C142.313 154.019 144.378 156.084 146.926 156.084H245.728C248.276 156.084 250.341 154.019 250.341 151.471C250.341 148.923 248.276 146.858 245.728 146.858H168.839L168.839 146.854C166.381 146.753 164.418 144.728 164.418 142.244C164.418 139.761 166.381 137.736 168.839 137.635L168.839 137.631H178.066C180.614 137.631 182.679 135.566 182.679 133.018C182.679 130.47 180.614 128.404 178.066 128.404H118.093C115.545 128.404 113.479 130.47 113.479 133.018C113.479 135.566 115.545 137.631 118.093 137.631H150.386ZM264.95 133.018C264.95 130.47 262.885 128.404 260.337 128.404H200.364C197.816 128.404 195.75 130.47 195.75 133.018C195.75 135.566 197.816 137.631 200.364 137.631H260.337C262.885 137.631 264.95 135.566 264.95 133.018Z" fill="#356CEE"/>
</g>
<mask id="mask3" style="mask-type:alpha" maskUnits="userSpaceOnUse" x="0" y="0" width="173" height="173">
<circle cx="86.5" cy="86.5" r="86.5" fill="white"/>
</mask>
<g mask="url(#mask3)">
<path d="M56.9659 105.338C56.9659 102.79 54.9005 100.724 52.3526 100.724H45.0481C42.5003 100.724 40.4348 98.659 40.4348 96.1111C40.4348 93.5632 42.5003 91.4978 45.0481 91.4978H75.4193C77.9671 91.4978 80.0326 93.5632 80.0326 96.1111C80.0326 98.659 77.9671 100.724 75.4193 100.724H74.2659L74.2659 100.728C71.8073 100.829 69.8449 102.854 69.8449 105.338C69.8449 107.821 71.8073 109.846 74.2659 109.947L74.2659 109.951H75.4193C77.9671 109.951 80.0326 112.017 80.0326 114.564C80.0326 117.112 77.9671 119.178 75.4193 119.178H51.9681C49.4203 119.178 47.3548 117.112 47.3548 114.564C47.3548 112.017 49.4203 109.951 51.9681 109.951H52.3526C54.9005 109.951 56.9659 107.886 56.9659 105.338Z" fill="#2255CA"/>
</g>
<mask id="mask4" style="mask-type:alpha" maskUnits="userSpaceOnUse" x="0" y="0" width="173" height="173">
<circle cx="86.5" cy="86.5" r="86.5" fill="white"/>
</mask>
<g mask="url(#mask4)">
<rect opacity="0.0775757" x="86.5" y="4.22888" width="82.7918" height="164.542" fill="black"/>
</g>
</svg>
