<svg width="256" height="256" viewBox="0 0 256 256" fill="none" xmlns="http://www.w3.org/2000/svg">
<path fill-rule="evenodd" clip-rule="evenodd" d="M148.11 107.89C207.696 167.475 247.057 224.722 236.025 235.754C235.98 235.8 235.934 235.844 235.887 235.887L218.388 218.388L218.529 218.259C227.772 209.016 194.794 161.052 144.871 111.129C94.948 61.2056 46.9843 28.2278 37.7412 37.4708C37.6961 37.516 37.6519 37.5621 37.6087 37.6091L20.1164 20.1164L20.2456 19.9752C31.2776 8.94321 88.5246 48.3038 148.11 107.89ZM143.791 111.938C191.294 159.441 222.673 205.081 213.877 213.877L207.285 207.285L207.427 207.156C215.552 199.031 186.638 156.945 142.847 113.153C99.0552 69.3619 56.9687 40.4485 48.8438 48.5734C48.7986 48.6185 48.7546 48.6648 48.7117 48.712L41.8516 41.8512C50.6474 33.0554 96.287 64.4342 143.791 111.938Z" fill="#B87D43"/>
<circle cx="127.983" cy="121.851" r="79.9406" fill="#FCCB6B"/>
<mask id="mask0" style="mask-type:alpha" maskUnits="userSpaceOnUse" x="48" y="41" width="160" height="161">
<circle cx="127.983" cy="121.851" r="79.9406" fill="white"/>
</mask>
<g mask="url(#mask0)">
<path fill-rule="evenodd" clip-rule="evenodd" d="M207.297 198.898C205.496 197.097 202.575 197.097 200.774 198.898C198.973 200.699 198.973 203.619 200.774 205.421L243.169 247.815C244.97 249.617 247.89 249.617 249.691 247.815C251.493 246.014 251.493 243.094 249.691 241.293L207.297 198.898ZM147.509 139.111C145.708 137.309 142.788 137.31 140.987 139.111C139.186 140.912 139.186 143.832 140.987 145.633L162.184 166.83L162.181 166.833C163.848 168.642 163.804 171.461 162.048 173.217C160.293 174.972 157.474 175.017 155.664 173.35L155.662 173.353L112.18 129.871C110.379 128.07 107.459 128.07 105.658 129.871C103.856 131.672 103.856 134.592 105.658 136.393L175.5 206.236C177.301 208.037 180.222 208.037 182.023 206.236C183.824 204.435 183.824 201.515 182.023 199.714L168.706 186.397C166.905 184.596 166.905 181.676 168.706 179.875C170.507 178.074 173.428 178.074 175.229 179.875L183.382 188.028C185.183 189.829 188.103 189.829 189.904 188.028C191.705 186.227 191.705 183.307 189.904 181.505L147.509 139.111ZM177.131 220.911C175.33 219.11 172.41 219.11 170.609 220.911C168.808 222.712 168.808 225.632 170.609 227.433L190.447 247.272C192.248 249.073 195.169 249.073 196.97 247.272C198.771 245.471 198.771 242.551 196.97 240.75L177.131 220.911ZM99.1352 142.915C97.3341 141.114 94.414 141.114 92.6129 142.915C90.8118 144.716 90.8118 147.636 92.6129 149.438L112.452 169.276C114.253 171.077 117.173 171.077 118.974 169.276C120.775 167.475 120.775 164.555 118.974 162.754L99.1352 142.915ZM24.1289 74.4312C25.9299 72.6301 28.8501 72.6301 30.6512 74.4312L75.7637 119.544C77.5648 121.345 77.5648 124.265 75.7637 126.066C73.9626 127.867 71.0425 127.867 69.2414 126.066L24.1289 80.9535C22.3278 79.1524 22.3278 76.2323 24.1289 74.4312ZM98.5917 103.238C96.7906 101.437 93.8705 101.437 92.0694 103.238C90.2683 105.039 90.2683 107.959 92.0694 109.76L94.5153 112.206C96.3164 114.007 96.3164 116.927 94.5153 118.728C92.7142 120.53 89.7941 120.53 87.993 118.728L18.1501 48.8855C16.349 47.0845 16.349 44.1643 18.1501 42.3632C19.9512 40.5622 22.8713 40.5622 24.6724 42.3632L79.0248 96.7157L79.0275 96.7128C80.8368 98.3797 83.6556 98.3354 85.4112 96.5798C87.1668 94.8242 87.2112 92.0054 85.5442 90.1961L85.5471 90.1934L79.0248 83.6711C77.2237 81.87 77.2237 78.9499 79.0248 77.1488C80.8259 75.3477 83.746 75.3477 85.5471 77.1488L127.942 119.544C129.743 121.345 129.743 124.265 127.942 126.066C126.141 127.867 123.221 127.867 121.42 126.066L98.5917 103.238ZM20.8677 18.9917C22.6688 17.1906 25.5889 17.1906 27.39 18.9917L69.7849 61.3866C71.586 63.1877 71.586 66.1078 69.7849 67.9089C67.9838 69.71 65.0637 69.71 63.2626 67.9089L20.8677 25.514C19.0666 23.7129 19.0666 20.7928 20.8677 18.9917Z" fill="#ECB55A"/>
</g>
<mask id="mask1" style="mask-type:alpha" maskUnits="userSpaceOnUse" x="48" y="41" width="160" height="161">
<circle cx="127.983" cy="121.851" r="79.9406" fill="white"/>
</mask>
<g mask="url(#mask1)">
<rect opacity="0.0775757" x="127.983" y="41.9105" width="80.3591" height="159.881" fill="black"/>
</g>
<path fill-rule="evenodd" clip-rule="evenodd" d="M107.89 148.11C167.475 207.696 224.722 247.057 235.754 236.025C235.8 235.98 235.844 235.934 235.887 235.887L218.388 218.388L218.259 218.529C209.016 227.772 161.052 194.794 111.129 144.871C61.2056 94.948 28.2278 46.9843 37.4708 37.7412C37.516 37.6961 37.5621 37.6519 37.6091 37.6087L20.1164 20.1164L19.9752 20.2456C8.94321 31.2776 48.3038 88.5246 107.89 148.11ZM111.938 143.791C159.441 191.294 205.081 222.673 213.877 213.877L207.285 207.285L207.156 207.427C199.031 215.552 156.945 186.638 113.153 142.847C69.3619 99.0552 40.4485 56.9687 48.5734 48.8438C48.6185 48.7986 48.6648 48.7546 48.712 48.7117L41.8512 41.8516C33.0554 50.6474 64.4342 96.287 111.938 143.791Z" fill="#B87D43"/>
</svg>
