<svg width="176" height="176" viewBox="0 0 176 176" fill="none" xmlns="http://www.w3.org/2000/svg">
<circle cx="88" cy="88" r="88" fill="#65F0D5"/>
<mask id="mask0" style="mask-type:alpha" maskUnits="userSpaceOnUse" x="0" y="0" width="176" height="176">
<circle cx="88" cy="88" r="88" fill="white"/>
</mask>
<g mask="url(#mask0)">
<path fill-rule="evenodd" clip-rule="evenodd" d="M171.051 -57.6419C171.051 -55.0951 168.986 -53.0306 166.439 -53.0306C163.892 -53.0306 161.828 -55.0951 161.828 -57.6419V-117.59C161.828 -120.136 163.892 -122.201 166.439 -122.201C168.986 -122.201 171.051 -120.136 171.051 -117.59V-57.6419ZM171.051 26.8996C171.051 29.4464 168.986 31.5109 166.439 31.5109C163.892 31.5109 161.828 29.4464 161.828 26.8996V-3.07423L161.824 -3.07408C161.723 -5.53183 159.699 -7.49345 157.216 -7.49345C154.734 -7.49345 152.71 -5.53183 152.609 -3.07408L152.605 -3.07423V58.4105C152.605 60.9573 150.541 63.0219 147.994 63.0219C145.447 63.0219 143.382 60.9573 143.382 58.4105V-40.3493C143.382 -42.8961 145.447 -44.9607 147.994 -44.9607C150.541 -44.9607 152.605 -42.8961 152.605 -40.3493V-21.5196C152.605 -18.9729 154.67 -16.9083 157.216 -16.9083C159.763 -16.9083 161.828 -18.9729 161.828 -21.5196V-33.048C161.828 -35.5948 163.892 -37.6594 166.439 -37.6594C168.986 -37.6594 171.051 -35.5948 171.051 -33.048V26.8996ZM134.16 -51.8777C134.16 -49.3309 132.095 -47.2664 129.548 -47.2664C127.002 -47.2664 124.937 -49.3309 124.937 -51.8777V-79.9301C124.937 -82.4769 127.002 -84.5415 129.548 -84.5415C132.095 -84.5415 134.16 -82.4769 134.16 -79.9301V-51.8777ZM134.16 58.4105C134.16 60.9573 132.095 63.0219 129.548 63.0219C127.002 63.0219 124.937 60.9573 124.937 58.4105L124.937 30.3581C124.937 27.8113 127.002 25.7467 129.548 25.7467C132.095 25.7467 134.16 27.8113 134.16 30.3581V58.4105ZM129.548 159.86C132.095 159.86 134.16 157.796 134.16 155.249V91.4585C134.16 88.9117 132.095 86.8472 129.548 86.8472C127.002 86.8472 124.937 88.9117 124.937 91.4585V155.249C124.937 157.796 127.002 159.86 129.548 159.86ZM161.828 86.8472C161.828 89.394 159.763 91.4585 157.216 91.4585C154.67 91.4585 152.605 89.394 152.605 86.8472V83.3887C152.605 80.8419 150.541 78.7773 147.994 78.7773C145.447 78.7773 143.382 80.8419 143.382 83.3887L143.382 182.148C143.382 184.695 145.447 186.76 147.994 186.76C150.541 186.76 152.605 184.695 152.605 182.148L152.605 105.293L152.609 105.293C152.71 102.835 154.734 100.873 157.216 100.873C159.699 100.873 161.723 102.835 161.824 105.293L161.828 105.293V114.515C161.828 117.062 163.892 119.127 166.439 119.127C168.986 119.127 171.051 117.062 171.051 114.515L171.051 54.5677C171.051 52.0209 168.986 49.9563 166.439 49.9563C163.892 49.9563 161.828 52.0209 161.828 54.5677V86.8472ZM166.439 201.362C168.986 201.362 171.051 199.298 171.051 196.751V136.803C171.051 134.257 168.986 132.192 166.439 132.192C163.892 132.192 161.828 134.257 161.828 136.803V196.751C161.828 199.298 163.892 201.362 166.439 201.362Z" fill="#49CBC2"/>
</g>
<mask id="mask1" style="mask-type:alpha" maskUnits="userSpaceOnUse" x="0" y="0" width="176" height="176">
<circle cx="88" cy="88" r="88" fill="white"/>
</mask>
<g mask="url(#mask1)">
<path fill-rule="evenodd" clip-rule="evenodd" d="M69.6008 -84.5415C69.6008 -81.9947 71.6654 -79.9301 74.2122 -79.9301C76.759 -79.9301 78.8235 -81.9947 78.8235 -84.5415V-144.489C78.8235 -147.036 76.759 -149.1 74.2122 -149.1C71.6654 -149.1 69.6008 -147.036 69.6008 -144.489V-84.5415ZM69.6008 0C69.6008 2.54678 71.6654 4.61136 74.2122 4.61136C76.759 4.61136 78.8235 2.54678 78.8235 0L78.8235 -29.9738L78.8275 -29.9736C78.9281 -32.4314 80.9524 -34.393 83.4349 -34.393C85.9174 -34.393 87.9417 -32.4314 88.0423 -29.9736L88.0462 -29.9738L88.0462 31.5109C88.0462 34.0577 90.1108 36.1223 92.6576 36.1223C95.2044 36.1223 97.269 34.0577 97.269 31.5109L97.269 -67.2489C97.269 -69.7957 95.2044 -71.8603 92.6576 -71.8603C90.1108 -71.8603 88.0462 -69.7957 88.0462 -67.2489V-48.4192C88.0462 -45.8724 85.9817 -43.8079 83.4349 -43.8079C80.8881 -43.8079 78.8235 -45.8724 78.8235 -48.4192V-59.9476C78.8235 -62.4944 76.759 -64.559 74.2122 -64.559C71.6654 -64.559 69.6008 -62.4944 69.6008 -59.9476L69.6008 0ZM106.492 -78.7773C106.492 -76.2305 108.556 -74.1659 111.103 -74.1659C113.65 -74.1659 115.714 -76.2305 115.714 -78.7773V-106.83C115.714 -109.376 113.65 -111.441 111.103 -111.441C108.556 -111.441 106.492 -109.376 106.492 -106.83V-78.7773ZM106.492 31.5109C106.492 34.0577 108.556 36.1223 111.103 36.1223C113.65 36.1223 115.714 34.0577 115.714 31.5109L115.714 3.45853C115.714 0.911743 113.65 -1.15283 111.103 -1.15283C108.556 -1.15283 106.492 0.911743 106.492 3.45853L106.492 31.5109ZM111.103 132.961C108.556 132.961 106.492 130.896 106.492 128.349V64.559C106.492 62.0122 108.556 59.9476 111.103 59.9476C113.65 59.9476 115.714 62.0122 115.714 64.559V128.349C115.714 130.896 113.65 132.961 111.103 132.961ZM78.8235 59.9476C78.8235 62.4944 80.8881 64.559 83.4349 64.559C85.9817 64.559 88.0462 62.4944 88.0462 59.9476V56.4891C88.0462 53.9423 90.1108 51.8777 92.6576 51.8777C95.2044 51.8777 97.269 53.9423 97.269 56.4891V155.249C97.269 157.796 95.2044 159.86 92.6576 159.86C90.1108 159.86 88.0462 157.796 88.0462 155.249V78.393L88.0423 78.3932C87.9417 75.9354 85.9174 73.9738 83.4349 73.9738C80.9524 73.9738 78.9281 75.9354 78.8275 78.3932L78.8235 78.393V87.6157C78.8235 90.1625 76.759 92.2271 74.2122 92.2271C71.6654 92.2271 69.6008 90.1625 69.6008 87.6157V27.6681C69.6008 25.1214 71.6654 23.0568 74.2122 23.0568C76.759 23.0568 78.8235 25.1214 78.8235 27.6681V59.9476ZM74.2122 174.463C71.6654 174.463 69.6008 172.398 69.6008 169.852V109.904C69.6008 107.357 71.6654 105.293 74.2122 105.293C76.759 105.293 78.8235 107.357 78.8235 109.904V169.852C78.8235 172.398 76.759 174.463 74.2122 174.463Z" fill="#50DECD"/>
</g>
<mask id="mask2" style="mask-type:alpha" maskUnits="userSpaceOnUse" x="0" y="0" width="176" height="176">
<circle cx="88" cy="88" r="88" fill="white"/>
</mask>
<g mask="url(#mask2)">
<path fill-rule="evenodd" clip-rule="evenodd" d="M60.3781 -97.2227C60.3781 -94.6759 58.3135 -92.6114 55.7667 -92.6114C53.2199 -92.6114 51.1553 -94.6759 51.1553 -97.2227V-157.17C51.1553 -159.717 53.2199 -161.782 55.7667 -161.782C58.3135 -161.782 60.3781 -159.717 60.3781 -157.17L60.3781 -97.2227ZM60.3781 -12.6812C60.3781 -10.1345 58.3135 -8.06989 55.7667 -8.06989C53.2199 -8.06989 51.1553 -10.1345 51.1553 -12.6812V-42.655L51.1514 -42.6549C51.0508 -45.1126 49.0265 -47.0742 46.544 -47.0742C44.0615 -47.0742 42.0372 -45.1126 41.9366 -42.6549L41.9326 -42.655L41.9326 18.8297C41.9326 21.3764 39.8681 23.441 37.3213 23.441C34.7745 23.441 32.7099 21.3764 32.7099 18.8297L32.7099 -79.9302C32.7099 -82.4769 34.7745 -84.5415 37.3213 -84.5415C39.8681 -84.5415 41.9326 -82.4769 41.9326 -79.9302L41.9326 -61.1005C41.9326 -58.5537 43.9972 -56.4891 46.544 -56.4891C49.0908 -56.4891 51.1553 -58.5537 51.1553 -61.1005V-72.6288C51.1553 -75.1756 53.2199 -77.2402 55.7667 -77.2402C58.3135 -77.2402 60.3781 -75.1756 60.3781 -72.6288V-12.6812ZM23.4872 -91.4585C23.4872 -88.9118 21.4226 -86.8472 18.8759 -86.8472C16.3291 -86.8472 14.2645 -88.9118 14.2645 -91.4585L14.2645 -119.511C14.2645 -122.058 16.3291 -124.122 18.8759 -124.122C21.4226 -124.122 23.4872 -122.058 23.4872 -119.511L23.4872 -91.4585ZM23.4872 18.8297C23.4872 21.3765 21.4226 23.441 18.8759 23.441C16.3291 23.441 14.2645 21.3765 14.2645 18.8297L14.2645 -9.22272C14.2645 -11.7695 16.3291 -13.8341 18.8759 -13.8341C21.4226 -13.8341 23.4872 -11.7695 23.4872 -9.22272L23.4872 18.8297ZM18.8759 120.279C21.4226 120.279 23.4872 118.215 23.4872 115.668V51.8777C23.4872 49.3309 21.4226 47.2664 18.8759 47.2664C16.3291 47.2664 14.2645 49.3309 14.2645 51.8777V115.668C14.2645 118.215 16.3291 120.279 18.8759 120.279ZM51.1553 47.2664C51.1553 49.8131 49.0908 51.8777 46.544 51.8777C43.9972 51.8777 41.9326 49.8131 41.9326 47.2664V43.8078C41.9326 41.2611 39.8681 39.1965 37.3213 39.1965C34.7745 39.1965 32.7099 41.2611 32.7099 43.8078V142.568C32.7099 145.114 34.7745 147.179 37.3213 147.179C39.8681 147.179 41.9326 145.114 41.9326 142.568V65.7118L41.9366 65.7119C42.0372 63.2542 44.0615 61.2926 46.544 61.2926C49.0265 61.2926 51.0508 63.2542 51.1514 65.7119L51.1553 65.7118V74.9345C51.1553 77.4813 53.2199 79.5458 55.7667 79.5458C58.3135 79.5458 60.3781 77.4813 60.3781 74.9345V14.9869C60.3781 12.4401 58.3135 10.3755 55.7667 10.3755C53.2199 10.3755 51.1553 12.4401 51.1553 14.9869V47.2664ZM55.7667 161.782C58.3135 161.782 60.3781 159.717 60.3781 157.17L60.3781 97.2227C60.3781 94.6759 58.3135 92.6113 55.7667 92.6113C53.2199 92.6113 51.1553 94.6759 51.1553 97.2227L51.1553 157.17C51.1553 159.717 53.2199 161.782 55.7667 161.782Z" fill="#77FFF5"/>
</g>
<mask id="mask3" style="mask-type:alpha" maskUnits="userSpaceOnUse" x="0" y="0" width="176" height="176">
<circle cx="88" cy="88" r="88" fill="white"/>
</mask>
<g mask="url(#mask3)">
<rect opacity="0.0775757" x="88" width="88" height="176" fill="black"/>
</g>
</svg>
